PathFileType	4	(X/Y/Z)	Walk1.trc
DataRate	CameraRate	NumFrames	NumMarkers	Units	OrigDataRate	OrigDataStartFrame	OrigNumFrames
200.000000	200.000000	8	59	mm	200.000000	360	584
Frame#	Times		LFHD		RFHD		LBHD		RBHD		C7		T10		CLAV		STRN		RBack		LASI		RACR1		RUA1		RElbow		RFA1		RWRR		RWRU		RCAR		LACR1		LUA1		LElbow		LFA1		LWRU		LCAR		RTH1		RTH3		RTB1		RTB3		RTB4		LTH3		LTH2		LTH4		LLFC		LTB2		LTB4		LToe		RTH2		LMMAL		RTH4		LTH1		LTB1		RTB2		LCAL		LMT1		LTB3		LMT5		RElbowM		LWRR		LLMAL		RLFC		RPSI		LPSI		LElbowM		RASI		RMT1		RToe		RCAL		RMMAL		RLMAL		RMT5
			X1	Y1	Z1	X2	Y2	Z2	X3	Y3	Z3	X4	Y4	Z4	X5	Y5	Z5	X6	Y6	Z6	X7	Y7	Z7	X8	Y8	Z8	X9	Y9	Z9	X10	Y10	Z10	X11	Y11	Z11	X12	Y12	Z12	X13	Y13	Z13	X14	Y14	Z14	X15	Y15	Z15	X16	Y16	Z16	X17	Y17	Z17	X18	Y18	Z18	X19	Y19	Z19	X20	Y20	Z20	X21	Y21	Z21	X22	Y22	Z22	X23	Y23	Z23	X24	Y24	Z24	X25	Y25	Z25	X26	Y26	Z26	X27	Y27	Z27	X28	Y28	Z28	X29	Y29	Z29	X30	Y30	Z30	X31	Y31	Z31	X32	Y32	Z32	X33	Y33	Z33	X34	Y34	Z34	X35	Y35	Z35	X36	Y36	Z36	X37	Y37	Z37	X38	Y38	Z38	X39	Y39	Z39	X40	Y40	Z40	X41	Y41	Z41	X42	Y42	Z42	X43	Y43	Z43	X44	Y44	Z44	X45	Y45	Z45	X46	Y46	Z46	X47	Y47	Z47	X48	Y48	Z48	X49	Y49	Z49	X50	Y50	Z50	X51	Y51	Z51	X52	Y52	Z52	X53	Y53	Z53	X54	Y54	Z54	X55	Y55	Z55	X56	Y56	Z56	X57	Y57	Z57	X58	Y58	Z58	X59	Y59	Z59

360	1.8	-280.97	1428.6	-33.527	-292.66	1415.2	61.754	-408.74	1354.9	-68.735	-423.53	1344.9	63.192	-455.54	1266.1	-3.3628	-543.23	1068.3	10.376	-313.88	1181.6	-8.4463	-263.57	1076.3	-13.274	-501.38	1145.7	117.64	-337.77	817.8	-161.15	-380.3	1208.2	174.11	-365.8	1064.6	253.09	-366.66	937.26	284.67	-284.65	833.59	281.57	-248.02	744.48	236.54	-279.31	732.4	300.59	-220.4	690.62	285.65	-398.29	1212.3	-192.05	-401.24	1054.6	-270.33	-449.73	945.34	-290.8	-409.53	849.87	-336.72	-436.69	744.96	-370.95	-403.85	691.24	-380.65	-398.35	626.64	212.18	-401.63	458.09	173.35	-467.59	271.45	111.71	-609.4	177.96	81.831	-541.92	226.33	96.321	-357.47	484.9	-159.52	-319.4	585.09	-164.05	-370.06	566.98	-189.48	-320.73	398.92	-120.15	-326.91	212.82	-104.75	-311.13	215.16	-44.358	-192.89	30.281	-22.908	-345.38	546.61	175.15	-348.29	73.46	6.8695	-401.68	542.38	195.33	-382.95	649.55	-211.48	-299.2	302.06	-51.044	-567.98	255.22	143.26	-410.09	42.012	-29.457	-244.92	33.087	-3.1413	-315.56	132.19	-38.647	-283.29	19.989	-91.432	-415.93	900.32	212.82	-389.57	734.6	-330.6	-365.3	56.94	-71.748	-438.72	379.37	158.79	-582.19	840.08	66.2	-594.71	844.45	-41.396	-470.82	920.97	-222.04	-318.03	815.75	148.43	-662.04	67.996	28.11	-636.96	32.873	66.306	-735.83	212.11	58.628	-669.09	174.17	29.281	-695.43	173.97	107.85	-697.15	68.689	110.18
361	1.805	-275.29	1429.4	-33.807	-287.02	1416.1	61.477	-403.07	1355.7	-69.014	-417.9	1345.8	62.911	-449.93	1266.9	-3.7053	-537.63	1069.2	9.9795	-308.22	1182.4	-8.513	-258.06	1077.3	-13.483	-495.99	1146.6	117.16	-332.58	818.56	-161.32	-375.16	1209.3	173.91	-360.92	1065.6	252.99	-362.45	938.21	284.47	-280.99	834.11	281.7	-244.76	744.71	236.78	-276.2	732.91	300.81	-217.46	690.79	285.97	-392.33	1213.1	-192.21	-394.53	1055.6	-270.65	-442.74	946.05	-291.45	-401.65	850.72	-337	-427.84	745.6	-371.23	-394.55	692.1	-380.64	-391.14	627.38	211.97	-390.96	458.69	173.4	-456.3	272.6	111.37	-598.96	180.26	81.937	-531.09	228.1	96.238	-354.92	484.93	-159.78	-316	584.77	-164.71	-366.96	567.09	-189.82	-318.64	398.65	-120.46	-325.96	212.58	-105.01	-310.07	214.87	-44.647	-192.81	30.303	-22.903	-336.52	548.34	175.06	-348.17	73.499	6.8083	-392.73	543.03	195.24	-379.29	649.78	-211.75	-297.5	301.71	-51.39	-556.68	256.99	143.4	-410.1	42.095	-29.521	-244.95	33.141	-3.1349	-315.09	131.94	-38.874	-283.29	19.994	-91.469	-411.55	901.56	212.38	-380.88	735.62	-330.55	-365.3	56.98	-71.776	-426.92	379.89	158.94	-576.65	840.89	66.252	-589.25	845.68	-41.37	-464.19	921.64	-222.81	-312.32	816.6	148.2	-651.54	70.192	30.468	-627.07	34.445	69.494	-725.43	215.16	58.581	-658.8	176.69	29.628	-685.11	177.29	108.2	-687.17	72.494	112.2
362	1.81	-269.63	1430.2	-34.076	-281.4	1417	61.213	-397.41	1356.5	-69.282	-412.28	1346.7	62.642	-444.32	1267.7	-4.0241	-532.07	1070	9.5847	-302.58	1183.2	-8.5573	-252.56	1078.1	-13.626	-490.62	1147.5	116.68	-327.45	819.24	-161.47	-370.04	1210.3	173.74	-356.09	1066.6	252.92	-358.23	939.12	284.34	-277.3	834.62	281.88	-241.47	744.96	237.05	-273.04	733.41	301.05	-214.45	690.99	286.33	-386.38	1213.9	-192.36	-387.84	1056.4	-270.96	-435.76	946.7	-292.12	-393.74	851.5	-337.27	-418.91	746.18	-371.51	-385.16	692.96	-380.64	-383.89	628.2	211.78	-380.32	459.44	173.43	-444.89	273.83	110.91	-588.21	182.4	81.966	-520.03	229.82	96.061	-352.35	484.99	-160.02	-312.6	584.48	-165.31	-363.84	567.22	-190.11	-316.56	398.39	-120.75	-325	212.34	-105.24	-309.03	214.58	-44.914	-192.71	30.309	-22.923	-327.69	550.15	174.92	-348.04	73.539	6.7578	-383.79	543.81	195.15	-375.61	650.02	-211.98	-295.82	301.37	-51.705	-545.19	258.65	143.45	-410.11	42.187	-29.577	-244.98	33.193	-3.1335	-314.61	131.7	-39.08	-283.3	19.992	-91.503	-407.2	902.75	212.05	-372.14	736.6	-330.51	-365.3	57.023	-71.798	-415.13	380.58	159.02	-571.18	841.71	66.251	-583.82	846.89	-41.385	-457.59	922.22	-223.62	-306.67	817.44	148.11	-640.44	72.195	32.776	-616.37	36.057	72.528	-714.85	217.72	58.479	-648.2	178.91	29.907	-674.44	180.28	108.5	-676.5	76.038	114.21
363	1.815	-263.98	1431	-34.334	-275.79	1417.8	60.961	-391.75	1357.2	-69.54	-406.67	1347.5	62.384	-438.69	1268.5	-4.3191	-526.53	1070.8	9.192	-296.94	1184	-8.5821	-247.07	1079	-13.701	-485.27	1148.3	116.21	-322.38	819.85	-161.59	-364.93	1211.2	173.6	-351.3	1067.5	252.89	-353.99	940	284.27	-273.59	835.12	282.09	-238.12	745.21	237.36	-269.84	733.89	301.32	-211.4	691.2	286.73	-380.43	1214.6	-192.51	-381.18	1057.2	-271.26	-428.77	947.28	-292.81	-385.8	852.23	-337.55	-409.92	746.72	-371.8	-375.67	693.81	-380.65	-376.61	629.08	211.6	-369.73	460.32	173.43	-433.36	275.13	110.35	-577.17	184.34	81.936	-508.76	231.47	95.812	-349.73	485.06	-160.24	-309.18	584.21	-165.85	-360.69	567.35	-190.37	-314.46	398.13	-121	-324.04	212.12	-105.46	-307.98	214.29	-45.155	-192.59	30.298	-22.966	-318.89	552.04	174.74	-347.91	73.58	6.7207	-374.87	544.69	195.06	-371.9	650.26	-212.17	-294.14	301.02	-51.989	-533.54	260.18	143.43	-410.11	42.291	-29.625	-244.99	33.241	-3.1357	-314.13	131.46	-39.264	-283.3	19.986	-91.533	-402.86	903.87	211.83	-363.34	737.53	-330.46	-365.29	57.07	-71.811	-403.35	381.4	159.05	-565.79	842.52	66.198	-578.41	848.06	-41.44	-451.01	922.7	-224.46	-301.08	818.27	148.17	-628.77	73.983	34.996	-604.89	37.67	75.367	-704.09	219.78	58.348	-637.32	180.82	30.128	-663.44	182.91	108.75	-665.14	79.264	116.18
364	1.82	-258.35	1431.7	-34.58	-270.2	1418.6	60.721	-386.11	1357.9	-69.787	-401.06	1348.3	62.137	-433.05	1269.2	-4.591	-521.01	1071.6	8.8014	-291.32	1184.7	-8.5904	-241.59	1079.7	-13.707	-479.92	1149	115.76	-317.36	820.38	-161.7	-359.81	1212.1	173.48	-346.54	1068.4	252.87	-349.74	940.84	284.25	-269.84	835.6	282.34	-234.72	745.46	237.71	-266.59	734.37	301.62	-208.29	691.42	287.16	-374.5	1215.2	-192.66	-374.53	1057.9	-271.55	-421.78	947.79	-293.5	-377.82	852.91	-337.82	-400.87	747.21	-372.09	-366.11	694.66	-380.66	-369.3	630.03	211.43	-359.2	461.33	173.43	-421.72	276.49	109.72	-565.85	186.07	81.865	-497.28	233.04	95.508	-347.06	485.13	-160.43	-305.74	583.94	-166.33	-357.5	567.48	-190.58	-312.34	397.87	-121.23	-323.06	211.9	-105.64	-306.92	213.99	-45.371	-192.45	30.269	-23.031	-310.15	554	174.54	-347.77	73.621	6.6991	-365.96	545.68	194.98	-368.15	650.5	-212.32	-292.45	300.67	-52.241	-521.74	261.59	143.35	-410.1	42.405	-29.663	-244.99	33.284	-3.1402	-313.64	131.22	-39.424	-283.3	19.977	-91.559	-398.55	904.94	211.7	-354.5	738.43	-330.42	-365.27	57.121	-71.814	-391.59	382.36	159.03	-560.47	843.34	66.097	-573.02	849.18	-41.533	-444.44	923.09	-225.34	-295.55	819.1	148.35	-616.55	75.541	37.093	-592.66	39.251	77.976	-693.14	221.3	58.215	-626.14	182.4	30.301	-652.11	185.14	108.98	-653.13	82.123	118.07
365	1.825	-252.73	1432.4	-34.815	-264.61	1419.3	60.491	-380.46	1358.6	-70.025	-395.47	1349	61.899	-427.39	1269.9	-4.8414	-515.52	1072.3	8.4128	-285.71	1185.4	-8.5846	-236.12	1080.3	-13.64	-474.57	1149.7	115.32	-312.38	820.86	-161.79	-354.67	1212.9	173.39	-341.82	1069.2	252.89	-345.47	941.65	284.28	-266.05	836.06	282.63	-231.27	745.72	238.09	-263.28	734.84	301.94	-205.12	691.66	287.64	-368.57	1215.7	-192.81	-367.91	1058.5	-271.82	-414.79	948.23	-294.2	-369.82	853.54	-338.09	-391.77	747.66	-372.36	-356.47	695.51	-380.68	-361.98	631.03	211.29	-348.75	462.47	173.4	-409.98	277.89	109.04	-554.24	187.57	81.767	-485.6	234.51	95.166	-344.34	485.2	-160.59	-302.25	583.68	-166.74	-354.26	567.62	-190.74	-310.2	397.61	-121.41	-322.06	211.68	-105.8	-305.85	213.69	-45.56	-192.3	30.223	-23.114	-301.47	556.03	174.32	-347.63	73.663	6.6941	-357.1	546.76	194.89	-364.33	650.73	-212.43	-290.75	300.32	-52.462	-509.8	262.87	143.23	-410.08	42.529	-29.688	-244.98	33.322	-3.1455	-313.13	130.98	-39.559	-283.3	19.967	-91.579	-394.26	905.94	211.68	-345.63	739.29	-330.38	-365.23	57.176	-71.804	-379.87	383.43	158.96	-555.21	844.17	65.951	-567.66	850.26	-41.662	-437.88	923.39	-226.23	-290.08	819.9	148.66	-603.79	76.856	39.038	-579.71	40.765	80.328	-682.02	222.28	58.101	-614.67	183.63	30.436	-640.46	186.94	109.19	-640.49	84.576	119.85
366	1.83	-247.12	1433.1	-35.04	-259.04	1420	60.273	-374.83	1359.2	-70.253	-389.87	1349.7	61.67	-421.73	1270.6	-5.0725	-510.06	1073	8.0258	-280.1	1186	-8.5668	-230.65	1080.9	-13.5	-469.21	1150.4	114.9	-307.45	821.27	-161.88	-349.52	1213.7	173.32	-337.13	1070	252.93	-341.17	942.44	284.36	-262.22	836.51	282.94	-227.76	745.99	238.52	-259.93	735.3	302.3	-201.9	691.9	288.15	-362.66	1216.2	-192.97	-361.31	1059	-272.07	-407.8	948.61	-294.9	-361.8	854.13	-338.35	-382.61	748.07	-372.63	-346.77	696.36	-380.71	-354.66	632.08	211.16	-338.38	463.71	173.35	-398.13	279.32	108.33	-542.36	188.82	81.655	-473.73	235.86	94.801	-341.57	485.27	-160.72	-298.72	583.42	-167.1	-350.96	567.74	-190.85	-308.02	397.35	-121.56	-321.05	211.47	-105.92	-304.77	213.39	-45.722	-192.13	30.162	-23.214	-292.86	558.11	174.08	-347.47	73.703	6.7067	-348.28	547.91	194.8	-360.45	650.94	-212.49	-289.02	299.96	-52.65	-497.73	264	143.07	-410.05	42.664	-29.699	-244.96	33.352	-3.1504	-312.62	130.74	-39.666	-283.29	19.956	-91.593	-389.98	906.89	211.75	-336.71	740.13	-330.33	-365.19	57.235	-71.782	-368.2	384.61	158.84	-550	844.99	65.761	-562.31	851.29	-41.825	-431.31	923.6	-227.14	-284.67	820.69	149.07	-590.53	77.917	40.808	-566.07	42.185	82.402	-670.71	222.71	58.029	-602.93	184.51	30.544	-628.5	188.28	109.4	-627.23	86.592	121.5
367	1.835	-241.52	1433.7	-35.255	-253.47	1420.7	60.064	-369.2	1359.8	-70.472	-384.29	1350.3	61.449	-416.05	1271.2	-5.2868	-504.61	1073.7	7.64	-274.52	1186.6	-8.5387	-225.19	1081.4	-13.285	-463.86	1151.1	114.5	-302.53	821.64	-161.96	-344.35	1214.4	173.26	-332.46	1070.8	253	-336.83	943.19	284.48	-258.35	836.95	283.28	-224.18	746.26	238.98	-256.52	735.75	302.69	-198.62	692.14	288.71	-356.76	1216.6	-193.13	-354.74	1059.5	-272.31	-400.81	948.93	-295.59	-353.76	854.68	-338.59	-373.42	748.46	-372.88	-337.01	697.22	-380.72	-347.37	633.16	211.05	-328.11	465.05	173.28	-386.18	280.76	107.61	-530.21	189.81	81.539	-461.68	237.08	94.426	-338.74	485.32	-160.81	-295.13	583.14	-167.4	-347.62	567.85	-190.92	-305.82	397.07	-121.67	-320.02	211.26	-106.02	-303.67	213.09	-45.855	-191.94	30.086	-23.328	-284.33	560.23	173.85	-347.31	73.742	6.7368	-339.52	549.12	194.71	-356.5	651.14	-212.52	-287.27	299.59	-52.804	-485.53	264.97	142.89	-410.02	42.807	-29.696	-244.92	33.375	-3.1535	-312.09	130.49	-39.745	-283.29	19.946	-91.6	-385.7	907.78	211.9	-327.76	740.95	-330.28	-365.13	57.297	-71.746	-356.58	385.86	158.67	-544.86	845.81	65.53	-556.99	852.27	-42.019	-424.75	923.73	-228.05	-279.33	821.45	149.59	-576.79	78.718	42.384	-551.78	43.485	84.185	-659.22	222.58	58.014	-590.92	185.02	30.632	-616.25	189.16	109.6	-613.4	88.151	123
